<svg width="13" height="13" viewBox="0 0 13 13" fill="none" xmlns="http://www.w3.org/2000/svg">
<g id="18562337021586788050 1" clip-path="url(#clip0_358_500)">
<g id="Layer_1">
<g id="Vector">
<mask id="path-1-inside-1_358_500" fill="white">
<path d="M6.49977 0.259766C3.05919 0.259766 0.259766 3.05919 0.259766 6.49977C0.259766 9.94035 3.05919 12.7398 6.49977 12.7398C9.94035 12.7398 12.7398 9.94035 12.7398 6.49977C12.7398 3.05919 9.94035 0.259766 6.49977 0.259766ZM6.49977 12.2198C3.34571 12.2198 0.779766 9.65383 0.779766 6.49977C0.779766 3.34571 3.34571 0.779766 6.49977 0.779766C9.65383 0.779766 12.2198 3.34571 12.2198 6.49977C12.2198 9.65383 9.65383 12.2198 6.49977 12.2198Z"/>
</mask>
<path d="M6.49977 0.259766C3.05919 0.259766 0.259766 3.05919 0.259766 6.49977C0.259766 9.94035 3.05919 12.7398 6.49977 12.7398C9.94035 12.7398 12.7398 9.94035 12.7398 6.49977C12.7398 3.05919 9.94035 0.259766 6.49977 0.259766ZM6.49977 12.2198C3.34571 12.2198 0.779766 9.65383 0.779766 6.49977C0.779766 3.34571 3.34571 0.779766 6.49977 0.779766C9.65383 0.779766 12.2198 3.34571 12.2198 6.49977C12.2198 9.65383 9.65383 12.2198 6.49977 12.2198Z" fill="white"/>
<path d="M6.49977 -0.740234C2.5069 -0.740234 -0.740234 2.5069 -0.740234 6.49977H1.25977C1.25977 3.61147 3.61147 1.25977 6.49977 1.25977V-0.740234ZM-0.740234 6.49977C-0.740234 10.4926 2.5069 13.7398 6.49977 13.7398V11.7398C3.61147 11.7398 1.25977 9.38806 1.25977 6.49977H-0.740234ZM6.49977 13.7398C10.4926 13.7398 13.7398 10.4926 13.7398 6.49977H11.7398C11.7398 9.38806 9.38806 11.7398 6.49977 11.7398V13.7398ZM13.7398 6.49977C13.7398 2.5069 10.4926 -0.740234 6.49977 -0.740234V1.25977C9.38806 1.25977 11.7398 3.61147 11.7398 6.49977H13.7398ZM6.49977 11.2198C3.89799 11.2198 1.77977 9.10154 1.77977 6.49977H-0.220234C-0.220234 10.2061 2.79342 13.2198 6.49977 13.2198V11.2198ZM1.77977 6.49977C1.77977 3.89799 3.89799 1.77977 6.49977 1.77977V-0.220234C2.79342 -0.220234 -0.220234 2.79342 -0.220234 6.49977H1.77977ZM6.49977 1.77977C9.10154 1.77977 11.2198 3.89799 11.2198 6.49977H13.2198C13.2198 2.79342 10.2061 -0.220234 6.49977 -0.220234V1.77977ZM11.2198 6.49977C11.2198 9.10154 9.10154 11.2198 6.49977 11.2198V13.2198C10.2061 13.2198 13.2198 10.2061 13.2198 6.49977H11.2198Z" fill="white" mask="url(#path-1-inside-1_358_500)"/>
</g>
<g id="Vector_2">
<mask id="path-3-inside-2_358_500" fill="white">
<path d="M5.98016 3.38008H7.02016C7.73698 3.38008 8.32016 3.96326 8.32016 4.68008H8.84016C8.84016 3.67648 8.0235 2.86008 7.02016 2.86008H6.76016V2.08008H6.24016V2.86008H5.98016C4.97682 2.86008 4.16016 3.67648 4.16016 4.68008V4.94008C4.16016 5.94368 4.97682 6.76008 5.98016 6.76008H7.02016C7.73698 6.76008 8.32016 7.34326 8.32016 8.06008V8.32008C8.32016 9.0369 7.73698 9.62008 7.02016 9.62008H5.98016C5.26334 9.62008 4.68016 9.0369 4.68016 8.32008H4.16016C4.16016 9.32368 4.97682 10.1401 5.98016 10.1401H6.24016V10.9201H6.76016V10.1401H7.02016C8.0235 10.1401 8.84016 9.32368 8.84016 8.32008V8.06008C8.84016 7.05648 8.0235 6.24008 7.02016 6.24008H5.98016C5.26334 6.24008 4.68016 5.6569 4.68016 4.94008V4.68008C4.68016 3.96326 5.26334 3.38008 5.98016 3.38008Z"/>
</mask>
<path d="M5.98016 3.38008H7.02016C7.73698 3.38008 8.32016 3.96326 8.32016 4.68008H8.84016C8.84016 3.67648 8.0235 2.86008 7.02016 2.86008H6.76016V2.08008H6.24016V2.86008H5.98016C4.97682 2.86008 4.16016 3.67648 4.16016 4.68008V4.94008C4.16016 5.94368 4.97682 6.76008 5.98016 6.76008H7.02016C7.73698 6.76008 8.32016 7.34326 8.32016 8.06008V8.32008C8.32016 9.0369 7.73698 9.62008 7.02016 9.62008H5.98016C5.26334 9.62008 4.68016 9.0369 4.68016 8.32008H4.16016C4.16016 9.32368 4.97682 10.1401 5.98016 10.1401H6.24016V10.9201H6.76016V10.1401H7.02016C8.0235 10.1401 8.84016 9.32368 8.84016 8.32008V8.06008C8.84016 7.05648 8.0235 6.24008 7.02016 6.24008H5.98016C5.26334 6.24008 4.68016 5.6569 4.68016 4.94008V4.68008C4.68016 3.96326 5.26334 3.38008 5.98016 3.38008Z" fill="white"/>
<path d="M8.32016 4.68008H7.32016V5.68008H8.32016V4.68008ZM8.84016 4.68008V5.68008H9.84016V4.68008H8.84016ZM6.76016 2.86008H5.76016V3.86008H6.76016V2.86008ZM6.76016 2.08008H7.76016V1.08008H6.76016V2.08008ZM6.24016 2.08008V1.08008H5.24016V2.08008H6.24016ZM6.24016 2.86008V3.86008H7.24016V2.86008H6.24016ZM4.68016 8.32008H5.68016V7.32008H4.68016V8.32008ZM4.16016 8.32008V7.32008H3.16016V8.32008H4.16016ZM6.24016 10.1401H7.24016V9.14008H6.24016V10.1401ZM6.24016 10.9201H5.24016V11.9201H6.24016V10.9201ZM6.76016 10.9201V11.9201H7.76016V10.9201H6.76016ZM6.76016 10.1401V9.14008H5.76016V10.1401H6.76016ZM5.98016 4.38008H7.02016V2.38008H5.98016V4.38008ZM7.02016 4.38008C7.18469 4.38008 7.32016 4.51554 7.32016 4.68008H9.32016C9.32016 3.41097 8.28926 2.38008 7.02016 2.38008V4.38008ZM8.32016 5.68008H8.84016V3.68008H8.32016V5.68008ZM9.84016 4.68008C9.84016 3.1241 8.57569 1.86008 7.02016 1.86008V3.86008C7.4713 3.86008 7.84016 4.22886 7.84016 4.68008H9.84016ZM7.02016 1.86008H6.76016V3.86008H7.02016V1.86008ZM7.76016 2.86008V2.08008H5.76016V2.86008H7.76016ZM6.76016 1.08008H6.24016V3.08008H6.76016V1.08008ZM5.24016 2.08008V2.86008H7.24016V2.08008H5.24016ZM6.24016 1.86008H5.98016V3.86008H6.24016V1.86008ZM5.98016 1.86008C4.42462 1.86008 3.16016 3.1241 3.16016 4.68008H5.16016C5.16016 4.22886 5.52901 3.86008 5.98016 3.86008V1.86008ZM3.16016 4.68008V4.94008H5.16016V4.68008H3.16016ZM3.16016 4.94008C3.16016 6.49606 4.42462 7.76008 5.98016 7.76008V5.76008C5.52901 5.76008 5.16016 5.3913 5.16016 4.94008H3.16016ZM5.98016 7.76008H7.02016V5.76008H5.98016V7.76008ZM7.02016 7.76008C7.18469 7.76008 7.32016 7.89554 7.32016 8.06008H9.32016C9.32016 6.79097 8.28926 5.76008 7.02016 5.76008V7.76008ZM7.32016 8.06008V8.32008H9.32016V8.06008H7.32016ZM7.32016 8.32008C7.32016 8.48461 7.18469 8.62008 7.02016 8.62008V10.6201C8.28926 10.6201 9.32016 9.58918 9.32016 8.32008H7.32016ZM7.02016 8.62008H5.98016V10.6201H7.02016V8.62008ZM5.98016 8.62008C5.81562 8.62008 5.68016 8.48461 5.68016 8.32008H3.68016C3.68016 9.58918 4.71105 10.6201 5.98016 10.6201V8.62008ZM4.68016 7.32008H4.16016V9.32008H4.68016V7.32008ZM3.16016 8.32008C3.16016 9.87606 4.42462 11.1401 5.98016 11.1401V9.14008C5.52901 9.14008 5.16016 8.7713 5.16016 8.32008H3.16016ZM5.98016 11.1401H6.24016V9.14008H5.98016V11.1401ZM5.24016 10.1401V10.9201H7.24016V10.1401H5.24016ZM6.24016 11.9201H6.76016V9.92008H6.24016V11.9201ZM7.76016 10.9201V10.1401H5.76016V10.9201H7.76016ZM6.76016 11.1401H7.02016V9.14008H6.76016V11.1401ZM7.02016 11.1401C8.57569 11.1401 9.84016 9.87606 9.84016 8.32008H7.84016C7.84016 8.7713 7.4713 9.14008 7.02016 9.14008V11.1401ZM9.84016 8.32008V8.06008H7.84016V8.32008H9.84016ZM9.84016 8.06008C9.84016 6.5041 8.57569 5.24008 7.02016 5.24008V7.24008C7.4713 7.24008 7.84016 7.60886 7.84016 8.06008H9.84016ZM7.02016 5.24008H5.98016V7.24008H7.02016V5.24008ZM5.98016 5.24008C5.81562 5.24008 5.68016 5.10461 5.68016 4.94008H3.68016C3.68016 6.20918 4.71105 7.24008 5.98016 7.24008V5.24008ZM5.68016 4.94008V4.68008H3.68016V4.94008H5.68016ZM5.68016 4.68008C5.68016 4.51554 5.81562 4.38008 5.98016 4.38008V2.38008C4.71105 2.38008 3.68016 3.41097 3.68016 4.68008H5.68016Z" fill="white" mask="url(#path-3-inside-2_358_500)"/>
</g>
</g>
</g>
<defs>
<clipPath id="clip0_358_500">
<rect width="13" height="13" fill="white"/>
</clipPath>
</defs>
</svg>
