<svg width="108" height="32" viewBox="0 0 108 32" fill="none" xmlns="http://www.w3.org/2000/svg">
<path d="M60.0501 19.0386L59.4639 17.4842C61.159 17.31 62.0937 16.7706 62.0937 15.0453V7.78906H63.7252V15.0453C63.7252 17.5311 62.2344 18.8946 60.0501 19.0386Z" fill="white"/>
<path d="M68.5229 15.3132C68.2013 15.3128 67.883 15.2489 67.5862 15.1251C67.2894 15.0013 67.02 14.8202 66.7934 14.592C66.5668 14.3639 66.3875 14.0932 66.2657 13.7956C66.144 13.4979 66.0823 13.1792 66.084 12.8576V4.24121H67.7155V12.8576C67.7146 12.9661 67.7353 13.0737 67.7764 13.1741C67.8175 13.2744 67.8782 13.3657 67.9549 13.4424C68.0316 13.5191 68.1228 13.5797 68.2232 13.6208C68.3236 13.6619 68.4312 13.6826 68.5396 13.6817H69.2532V15.3132H68.5229Z" fill="white"/>
<path d="M73.9094 13.6816V15.3131H68.9346V13.6816H73.9094Z" fill="white"/>
<path d="M80.402 14.4889C80.402 14.7075 80.3152 14.9171 80.1607 15.0716C80.0061 15.2262 79.7965 15.313 79.5779 15.313H78.8175C78.4357 15.3161 78.0579 15.2356 77.7106 15.077C77.3634 14.9184 77.0551 14.6856 76.8074 14.3951C76.58 14.6817 76.2907 14.9132 75.9612 15.0721C75.6316 15.2311 75.2704 15.3134 74.9046 15.313H73.732C73.6205 15.3202 73.5087 15.3044 73.4035 15.2666C73.2983 15.2289 73.202 15.1699 73.1205 15.0935C73.039 15.017 72.974 14.9247 72.9296 14.8221C72.8852 14.7196 72.8623 14.609 72.8623 14.4973C72.8623 14.3855 72.8852 14.275 72.9296 14.1724C72.974 14.0699 73.039 13.9775 73.1205 13.9011C73.202 13.8246 73.2983 13.7657 73.4035 13.7279C73.5087 13.6902 73.6205 13.6744 73.732 13.6815H74.7371C75.0469 13.6754 75.3418 13.5475 75.5581 13.3256C75.7744 13.1036 75.8946 12.8055 75.8928 12.4956V9.27952H77.5411V12.509C77.5722 12.8255 77.7182 13.1197 77.9516 13.3358C78.1849 13.5518 78.4894 13.6749 78.8074 13.6815H79.5679C79.6762 13.6775 79.7843 13.6954 79.8856 13.7342C79.9869 13.7729 80.0793 13.8318 80.1572 13.9073C80.2351 13.9827 80.297 14.0731 80.3391 14.1731C80.3812 14.273 80.4026 14.3804 80.402 14.4889ZM76.3317 6.63295C76.3317 6.8995 76.2258 7.15514 76.0373 7.34362C75.8488 7.53209 75.5932 7.63798 75.3267 7.63798C75.0601 7.63798 74.8045 7.53209 74.616 7.34362C74.4275 7.15514 74.3216 6.8995 74.3216 6.63295C74.3278 6.37049 74.4364 6.12084 74.6242 5.93741C74.812 5.75397 75.0641 5.65131 75.3267 5.65138C75.5892 5.65131 75.8413 5.75397 76.0292 5.93741C76.217 6.12084 76.3256 6.37049 76.3317 6.63295ZM79.0118 6.63295C79.0118 6.8995 78.9059 7.15514 78.7174 7.34362C78.5289 7.53209 78.2733 7.63798 78.0067 7.63798C77.7402 7.63798 77.4846 7.53209 77.2961 7.34362C77.1076 7.15514 77.0017 6.8995 77.0017 6.63295C77.0017 6.36641 77.1076 6.11077 77.2961 5.9223C77.4846 5.73382 77.7402 5.62793 78.0067 5.62793C78.2733 5.62793 78.5289 5.73382 78.7174 5.9223C78.9059 6.11077 79.0118 6.36641 79.0118 6.63295Z" fill="white"/>
<path d="M79.5309 15.3132C79.4193 15.3203 79.3075 15.3045 79.2024 15.2668C79.0972 15.229 79.0009 15.1701 78.9193 15.0936C78.8378 15.0172 78.7729 14.9248 78.7285 14.8223C78.684 14.7197 78.6611 14.6092 78.6611 14.4974C78.6611 14.3857 78.684 14.2751 78.7285 14.1726C78.7729 14.07 78.8378 13.9777 78.9193 13.9012C79.0009 13.8248 79.0972 13.7658 79.2024 13.7281C79.3075 13.6903 79.4193 13.6745 79.5309 13.6817H86.4521C86.2998 13.5906 86.1742 13.4608 86.0883 13.3054C86.0024 13.1501 85.9592 12.9747 85.963 12.7973V12.3349C85.963 11.2428 85.628 10.4656 84.9948 9.98988C83.7754 9.03846 81.829 9.35337 80.7972 9.70178L80.2277 8.23109C81.7821 7.56107 84.2679 7.42372 85.9798 8.7068C86.7871 9.30647 87.561 10.4153 87.561 12.2378V12.7772C87.5482 12.891 87.5597 13.0062 87.5947 13.1152C87.6297 13.2243 87.6873 13.3247 87.7639 13.4098C87.8405 13.495 87.9343 13.5629 88.0391 13.6092C88.1438 13.6555 88.2572 13.679 88.3717 13.6783H89.6381V15.3098L79.5309 15.3132ZM83.4438 4.38519C83.5882 4.35989 83.7365 4.3665 83.8781 4.40458C84.0197 4.44266 84.1513 4.51127 84.2636 4.60561C84.3759 4.69994 84.4662 4.81771 84.5282 4.95065C84.5901 5.08359 84.6222 5.22848 84.6222 5.37514C84.6222 5.52181 84.5901 5.66669 84.5282 5.79963C84.4662 5.93257 84.3759 6.05034 84.2636 6.14468C84.1513 6.23901 84.0197 6.30763 83.8781 6.3457C83.7365 6.38378 83.5882 6.3904 83.4438 6.36509C83.2108 6.32429 82.9997 6.20265 82.8476 6.02159C82.6955 5.84052 82.6121 5.61162 82.6121 5.37514C82.6121 5.13867 82.6955 4.90976 82.8476 4.7287C82.9997 4.54763 83.2108 4.426 83.4438 4.38519Z" fill="white"/>
<path d="M100.52 14.506C100.519 14.6132 100.497 14.7192 100.455 14.8178C100.413 14.9165 100.352 15.0059 100.275 15.0809C100.199 15.1559 100.108 15.2151 100.009 15.255C99.9092 15.2949 99.8028 15.3147 99.6956 15.3134H99.1429C98.7268 15.3213 98.3169 15.2109 97.9611 14.9951C97.6052 14.7792 97.318 14.4667 97.1328 14.094C96.8305 14.4765 96.445 14.7851 96.0056 14.9964C95.5662 15.2077 95.0844 15.3161 94.5968 15.3134C94.0836 15.3285 93.574 15.2233 93.1086 15.0063C92.6433 14.7894 92.2351 14.4666 91.9168 14.0638C91.6958 14.4438 91.3791 14.7591 90.9981 14.9784C90.6172 15.1977 90.1854 15.3132 89.7459 15.3134H89.1462C88.9311 15.3073 88.7268 15.218 88.5762 15.0643C88.4256 14.9106 88.3405 14.7045 88.3389 14.4893C88.3397 14.2754 88.4251 14.0706 88.5763 13.9194C88.7275 13.7681 88.9324 13.6828 89.1462 13.6819H89.7459C89.8932 13.6881 90.0401 13.6636 90.1774 13.61C90.3147 13.5565 90.4395 13.475 90.5437 13.3708C90.6479 13.2666 90.7294 13.1419 90.7829 13.0046C90.8365 12.8672 90.8609 12.7203 90.8548 12.573V7.74221H94.5935C95.5351 7.73907 96.441 8.10286 97.1189 8.75641C97.7969 9.40997 98.1936 10.3019 98.225 11.243V12.7472C98.2232 12.8691 98.2456 12.99 98.2909 13.1031C98.3362 13.2162 98.4035 13.3192 98.4888 13.4062C98.5742 13.4931 98.676 13.5622 98.7882 13.6096C98.9005 13.6569 99.0211 13.6815 99.1429 13.6819H99.6956C99.804 13.6815 99.9114 13.7025 100.012 13.7437C100.112 13.785 100.203 13.8457 100.279 13.9223C100.356 13.9989 100.417 14.0899 100.458 14.1901C100.499 14.2903 100.52 14.3977 100.52 14.506ZM96.5767 11.2765C96.5432 10.1811 95.689 9.39045 94.4863 9.39045H92.5198V11.7657C92.5303 12.277 92.7406 12.7638 93.1056 13.122C93.4707 13.4802 93.9615 13.6811 94.4729 13.6819C95.7225 13.6819 96.5633 12.7975 96.5633 11.702L96.5767 11.2765Z" fill="white"/>
<path d="M98.6973 14.506C98.6968 14.3976 98.7178 14.2903 98.7591 14.1901C98.8004 14.0899 98.8611 13.9989 98.9377 13.9223C99.0143 13.8456 99.1053 13.785 99.2055 13.7437C99.3057 13.7024 99.4131 13.6814 99.5214 13.6819H100.409C100.627 13.681 100.836 13.5938 100.99 13.4393C101.144 13.2849 101.23 13.0757 101.23 12.8577V4.27148H102.865V12.8577C102.866 13.1795 102.804 13.4983 102.682 13.7959C102.56 14.0936 102.38 14.3642 102.153 14.5923C101.926 14.8204 101.657 15.0016 101.36 15.1253C101.063 15.249 100.744 15.3129 100.423 15.3134H99.5214C99.4142 15.3147 99.3078 15.2948 99.2083 15.2549C99.1088 15.215 99.0182 15.1559 98.9416 15.0809C98.8651 15.0059 98.8041 14.9165 98.7621 14.8178C98.7202 14.7191 98.6981 14.6132 98.6973 14.506Z" fill="white"/>
<path d="M105.651 4.22461H107.283V15.3134H105.651V4.22461Z" fill="white"/>
<path d="M63.1794 26.8711C63.1794 26.9114 63.1714 26.9513 63.1559 26.9885C63.1404 27.0258 63.1176 27.0595 63.0889 27.0879C63.0603 27.1162 63.0263 27.1386 62.9889 27.1537C62.9515 27.1688 62.9115 27.1764 62.8712 27.176H62.6467C62.5084 27.1802 62.371 27.1521 62.2454 27.0939C62.1198 27.0358 62.0094 26.9492 61.9231 26.841V27.2463C61.8729 28.2513 61.1828 28.7136 60.3988 28.8611L60.1777 28.2848C60.7841 28.1642 61.3168 27.9029 61.3168 27.1123V23.8594H61.9231V25.846C61.9236 25.9406 61.9426 26.0341 61.9792 26.1214C62.0158 26.2086 62.0693 26.2877 62.1365 26.3543C62.2037 26.4209 62.2833 26.4736 62.3709 26.5093C62.4584 26.5451 62.5522 26.5633 62.6467 26.5629H62.888C62.9668 26.5672 63.0409 26.6015 63.0951 26.6589C63.1494 26.7162 63.1795 26.7922 63.1794 26.8711Z" fill="white"/>
<path d="M67.2197 26.5632V27.1763H62.8076V26.5632H63.8495C63.6976 26.4546 63.5746 26.3106 63.4911 26.1436C63.4076 25.9766 63.3662 25.7918 63.3704 25.6051V25.3706C63.3757 24.9586 63.5433 24.5653 63.8369 24.2761C64.1304 23.987 64.5262 23.8253 64.9383 23.8262C65.3464 23.828 65.7372 23.9916 66.0248 24.2811C66.3125 24.5706 66.4735 24.9625 66.4726 25.3706V26.3756C66.4726 26.456 66.4525 26.5465 66.4157 26.5599L67.2197 26.5632ZM65.8796 26.4426V25.3706C65.8801 25.248 65.8563 25.1265 65.8097 25.0132C65.7631 24.8998 65.6946 24.7967 65.6081 24.7099C65.5215 24.623 65.4187 24.5541 65.3055 24.5071C65.1923 24.4601 65.0709 24.4359 64.9483 24.4359C64.8219 24.4355 64.6967 24.46 64.5799 24.5082C64.463 24.5564 64.3568 24.6272 64.2675 24.7165C64.1781 24.8059 64.1073 24.9121 64.0591 25.0289C64.011 25.1458 63.9864 25.271 63.9868 25.3974V25.6252C63.9886 25.7504 64.015 25.8741 64.0647 25.9891C64.1143 26.1041 64.1862 26.2081 64.2761 26.2953C64.3661 26.3824 64.4724 26.4509 64.5889 26.4969C64.7054 26.5429 64.8298 26.5654 64.955 26.5632H65.7724C65.8009 26.5591 65.8267 26.5443 65.8447 26.522C65.8627 26.4996 65.8716 26.4713 65.8696 26.4426H65.8796ZM64.6066 22.8011C64.6066 22.7233 64.6298 22.6472 64.6732 22.5826C64.7165 22.518 64.7782 22.4678 64.8502 22.4384C64.9222 22.4089 65.0013 22.4015 65.0775 22.4172C65.1537 22.4329 65.2236 22.4709 65.2781 22.5264C65.3327 22.5819 65.3694 22.6523 65.3838 22.7288C65.3982 22.8053 65.3894 22.8843 65.3587 22.9558C65.328 23.0273 65.2768 23.088 65.2114 23.1303C65.1461 23.1725 65.0697 23.1944 64.9919 23.193C64.9401 23.1935 64.8888 23.1837 64.8408 23.1642C64.7929 23.1447 64.7493 23.1159 64.7125 23.0794C64.6758 23.043 64.6466 22.9996 64.6267 22.9519C64.6068 22.9041 64.5966 22.8528 64.5966 22.8011H64.6066Z" fill="white"/>
<path d="M74.2381 26.871C74.2372 26.9521 74.2043 27.0297 74.1466 27.0867C74.0889 27.1438 74.011 27.1758 73.9299 27.1758H73.4542C73.2852 27.1756 73.1196 27.1289 72.9755 27.0408C72.8313 26.9528 72.7141 26.8268 72.6367 26.6767C72.5157 26.8331 72.3603 26.9594 72.1825 27.046C72.0047 27.1326 71.8094 27.177 71.6116 27.1758C71.3951 27.1828 71.1806 27.1319 70.9904 27.0282C70.8001 26.9246 70.641 26.772 70.5295 26.5862C70.4091 26.7728 70.2425 26.9251 70.0458 27.0284C69.8492 27.1317 69.6293 27.1825 69.4073 27.1758C69.216 27.1785 69.0269 27.1355 68.8556 27.0504C68.6843 26.9654 68.5358 26.8407 68.4223 26.6867C68.3444 26.8342 68.2277 26.9577 68.0849 27.0439C67.9421 27.13 67.7784 27.1757 67.6116 27.1758H67.156C67.076 27.1758 66.9993 27.1441 66.9428 27.0875C66.8863 27.031 66.8545 26.9543 66.8545 26.8743C66.8545 26.7944 66.8863 26.7177 66.9428 26.6611C66.9993 26.6046 67.076 26.5728 67.156 26.5728H67.6116C67.7286 26.5719 67.8406 26.5251 67.9233 26.4423C68.0061 26.3596 68.0529 26.2476 68.0538 26.1306V24.5293H68.6769V25.8257C68.6769 25.9261 68.697 26.0255 68.7363 26.118C68.7755 26.2104 68.8329 26.294 68.9051 26.3637C68.9774 26.4334 69.0629 26.4879 69.1567 26.5238C69.2504 26.5597 69.3505 26.5764 69.4508 26.5728C69.5545 26.5774 69.658 26.5608 69.755 26.524C69.852 26.4872 69.9405 26.4311 70.0151 26.359C70.0897 26.2869 70.1489 26.2003 70.1889 26.1046C70.229 26.0089 70.2491 25.906 70.2481 25.8023V24.5293H70.8545V25.8257C70.8534 25.926 70.8729 26.0254 70.9119 26.1177C70.9509 26.2101 71.0085 26.2935 71.0811 26.3626C71.1537 26.4317 71.2397 26.4852 71.3339 26.5196C71.4281 26.5541 71.5283 26.5687 71.6284 26.5628C71.7306 26.5659 71.8324 26.5484 71.9277 26.5111C72.0229 26.4739 72.1096 26.4177 72.1826 26.346C72.2555 26.2743 72.3132 26.1886 72.3521 26.094C72.391 25.9994 72.4103 25.8979 72.4089 25.7956V23.8525H73.0119V26.1306C73.0119 26.2479 73.0585 26.3604 73.1415 26.4433C73.2244 26.5262 73.3369 26.5728 73.4542 26.5728H73.9299C74.0099 26.5728 74.0868 26.6039 74.1443 26.6595C74.2018 26.7151 74.2355 26.791 74.2381 26.871Z" fill="white"/>
<path d="M73.5977 26.871C73.5976 26.791 73.6287 26.7141 73.6843 26.6566C73.74 26.5991 73.8158 26.5654 73.8958 26.5628H74.3313C74.4459 26.5628 74.5559 26.5173 74.6369 26.4363C74.718 26.3552 74.7635 26.2453 74.7635 26.1307V22.2178H75.3765V26.1307C75.377 26.2666 75.3507 26.4013 75.299 26.5271C75.2474 26.6528 75.1715 26.7672 75.0757 26.8636C74.9799 26.9601 74.866 27.0367 74.7406 27.0891C74.6152 27.1415 74.4807 27.1688 74.3447 27.1692H73.9025C73.8629 27.1696 73.8236 27.1623 73.7869 27.1475C73.7501 27.1328 73.7166 27.1109 73.6883 27.0833C73.66 27.0556 73.6374 27.0226 73.6219 26.9862C73.6063 26.9498 73.5981 26.9106 73.5977 26.871Z" fill="white"/>
<path d="M76.6494 22.1943H77.2625V27.1759H76.6494V22.1943Z" fill="white"/>
<path d="M81.3702 27.1629C81.3784 27.3833 81.3386 27.603 81.2535 27.8066C81.1685 28.0102 81.0403 28.1929 80.8778 28.3421C80.3786 28.8144 79.789 28.9116 78.7002 28.9116V28.3086C79.2697 28.3086 80.0168 28.3086 80.4724 27.9032C80.6307 27.745 80.7249 27.5338 80.737 27.3103V27.1763H79.8694C79.4251 27.1763 78.9991 26.9998 78.6849 26.6856C78.3708 26.3715 78.1943 25.9455 78.1943 25.5012C78.1943 25.057 78.3708 24.6309 78.6849 24.3168C78.9991 24.0026 79.4251 23.8262 79.8694 23.8262H81.3635L81.3702 27.1629ZM80.7571 26.5632V24.456H79.8761C79.7398 24.4558 79.6048 24.4834 79.4795 24.537C79.3542 24.5906 79.2411 24.6692 79.147 24.7679C79.053 24.8666 78.9801 24.9834 78.9326 25.1112C78.8852 25.239 78.8642 25.3751 78.871 25.5113C78.8628 25.6482 78.8827 25.7854 78.9295 25.9144C78.9763 26.0434 79.0491 26.1614 79.1432 26.2612C79.2374 26.361 79.351 26.4405 79.477 26.4948C79.6031 26.549 79.7389 26.5768 79.8761 26.5766L80.7571 26.5632Z" fill="white"/>
<path d="M88.2147 26.8709C88.2129 26.9512 88.1803 27.0278 88.1235 27.0846C88.0667 27.1414 87.9901 27.1741 87.9098 27.1758H87.5547C87.3442 27.1772 87.1377 27.1184 86.9596 27.0062C86.7815 26.894 86.6392 26.7331 86.5497 26.5426C86.4196 26.7379 86.2433 26.8979 86.0363 27.0084C85.8294 27.1189 85.5983 27.1764 85.3637 27.1758C84.9508 27.1794 84.5531 27.0199 84.257 26.732C83.9609 26.4441 83.7904 26.051 83.7825 25.6381V25.3768C83.7786 25.1698 83.8172 24.9642 83.8958 24.7726C83.9744 24.5811 84.0913 24.4076 84.2394 24.263C84.3876 24.1183 84.5637 24.0055 84.7571 23.9314C84.9504 23.8574 85.1569 23.8237 85.3637 23.8324H86.9483V25.9664C86.9445 26.046 86.9573 26.1256 86.9861 26.1999C87.015 26.2742 87.0591 26.3416 87.1156 26.3979C87.1721 26.4541 87.2398 26.4978 87.3143 26.5262C87.3888 26.5546 87.4684 26.567 87.548 26.5627H87.9031C87.9439 26.5623 87.9843 26.5699 88.0221 26.5852C88.0599 26.6005 88.0942 26.6231 88.1232 26.6518C88.1522 26.6804 88.1752 26.7146 88.1909 26.7522C88.2066 26.7898 88.2147 26.8302 88.2147 26.8709ZM86.3453 25.5811V24.4555H85.3704C85.2441 24.4515 85.1183 24.4728 85.0004 24.5183C84.8825 24.5637 84.7749 24.6324 84.684 24.7201C84.5931 24.8079 84.5208 24.913 84.4712 25.0293C84.4217 25.1455 84.3959 25.2705 84.3956 25.3969V25.6314C84.3969 25.7579 84.4231 25.883 84.4729 25.9993C84.5226 26.1157 84.5949 26.2211 84.6854 26.3095C84.776 26.3979 84.8831 26.4675 85.0007 26.5144C85.1182 26.5613 85.2439 26.5846 85.3704 26.5828C85.5009 26.5833 85.6301 26.5576 85.7503 26.5071C85.8706 26.4566 85.9795 26.3824 86.0705 26.2889C86.1614 26.1954 86.2327 26.0846 86.2799 25.963C86.3271 25.8414 86.3493 25.7115 86.3453 25.5811ZM85.5044 22.8441C85.5044 22.9481 85.4631 23.0478 85.3896 23.1213C85.3161 23.1948 85.2164 23.2361 85.1125 23.2361C85.0085 23.2361 84.9088 23.1948 84.8353 23.1213C84.7618 23.0478 84.7205 22.9481 84.7205 22.8441C84.7205 22.7402 84.7618 22.6405 84.8353 22.567C84.9088 22.4934 85.0085 22.4521 85.1125 22.4521C85.2164 22.4521 85.3161 22.4934 85.3896 22.567C85.4631 22.6405 85.5044 22.7402 85.5044 22.8441ZM86.5932 22.8441C86.5932 22.9481 86.5519 23.0478 86.4784 23.1213C86.4049 23.1948 86.3052 23.2361 86.2012 23.2361C86.0973 23.2361 85.9976 23.1948 85.9241 23.1213C85.8506 23.0478 85.8093 22.9481 85.8093 22.8441C85.8093 22.7402 85.8506 22.6405 85.9241 22.567C85.9976 22.4934 86.0973 22.4521 86.2012 22.4521C86.3052 22.4521 86.4049 22.4934 86.4784 22.567C86.5519 22.6405 86.5932 22.7402 86.5932 22.8441Z" fill="white"/>
<path d="M87.8455 27.176C87.7697 27.1681 87.6995 27.1324 87.6485 27.0758C87.5976 27.0192 87.5693 26.9457 87.5693 26.8695C87.5693 26.7933 87.5976 26.7198 87.6485 26.6632C87.6995 26.6066 87.7697 26.5709 87.8455 26.563H91.1218C91.0424 26.5152 90.9771 26.4472 90.9324 26.3661C90.8876 26.2849 90.8652 26.1933 90.8672 26.1007V25.8461C90.8839 25.6378 90.8507 25.4285 90.7703 25.2356C90.6899 25.0428 90.5646 24.8719 90.4049 24.7372C89.7985 24.2648 88.8371 24.4524 88.4317 24.5864L88.1972 24.0303C88.817 23.7958 89.9694 23.6484 90.7734 24.2514C91.004 24.4386 91.1864 24.6784 91.3053 24.9506C91.4242 25.2228 91.4762 25.5195 91.4568 25.8159V26.1007C91.4513 26.1591 91.4579 26.2181 91.4764 26.2738C91.4949 26.3295 91.5248 26.3807 91.5642 26.4242C91.6036 26.4677 91.6516 26.5026 91.7053 26.5264C91.7589 26.5503 91.8169 26.5628 91.8756 26.563H91.9828V27.176H87.8455Z" fill="white"/>
<path d="M94.0865 27.1759C93.9506 27.1755 93.8161 27.1483 93.6906 27.0958C93.5652 27.0434 93.4513 26.9668 93.3555 26.8703C93.2597 26.7739 93.1838 26.6595 93.1322 26.5338C93.0806 26.408 93.0543 26.2733 93.0547 26.1374V22.1943H93.6678V26.1307C93.6678 26.2435 93.7126 26.3517 93.7924 26.4315C93.8722 26.5113 93.9804 26.5561 94.0932 26.5561H94.4282V27.1692L94.0865 27.1759Z" fill="white"/>
<path d="M97.3737 26.8648C97.3741 26.9058 97.3664 26.9465 97.3509 26.9845C97.3354 27.0225 97.3124 27.057 97.2834 27.0861C97.2544 27.1151 97.2199 27.138 97.1818 27.1535C97.1438 27.169 97.1031 27.1768 97.0621 27.1763H96.5864C96.4165 27.1769 96.249 27.1371 96.0976 27.0602C95.9461 26.9833 95.8151 26.8715 95.7154 26.7341C95.6229 26.871 95.498 26.9829 95.352 27.0601C95.2059 27.1372 95.043 27.1771 94.8778 27.1763H94.3452C94.3022 27.1808 94.2588 27.1762 94.2178 27.1629C94.1767 27.1495 94.1389 27.1277 94.1068 27.0988C94.0747 27.0699 94.0491 27.0346 94.0315 26.9951C94.014 26.9557 94.0049 26.913 94.0049 26.8698C94.0049 26.8266 94.014 26.7839 94.0315 26.7445C94.0491 26.705 94.0747 26.6697 94.1068 26.6408C94.1389 26.6119 94.1767 26.5901 94.2178 26.5767C94.2588 26.5633 94.3022 26.5588 94.3452 26.5633H94.8075C94.9571 26.5615 95.0999 26.5006 95.2047 26.3939C95.3095 26.2872 95.3679 26.1433 95.367 25.9937V24.4561H95.98V26.0004C95.991 26.1521 96.0589 26.2941 96.1701 26.3978C96.2813 26.5016 96.4276 26.5595 96.5797 26.5599H97.0621C97.1028 26.5585 97.1434 26.5655 97.1814 26.5802C97.2193 26.595 97.2539 26.6173 97.283 26.6457C97.3122 26.6742 97.3352 26.7083 97.3508 26.746C97.3663 26.7836 97.3741 26.824 97.3737 26.8648ZM95.4775 28.2718C95.4775 28.3758 95.4362 28.4755 95.3627 28.549C95.2892 28.6225 95.1895 28.6638 95.0855 28.6638C94.9816 28.6638 94.8819 28.6225 94.8084 28.549C94.7349 28.4755 94.6936 28.3758 94.6936 28.2718C94.6936 28.1678 94.7349 28.0681 94.8084 27.9946C94.8819 27.9211 94.9816 27.8798 95.0855 27.8798C95.1895 27.8798 95.2892 27.9211 95.3627 27.9946C95.4362 28.0681 95.4775 28.1678 95.4775 28.2718ZM96.5964 28.2718C96.5947 28.3764 96.5519 28.4761 96.4773 28.5494C96.4028 28.6227 96.3024 28.6638 96.1978 28.6638C96.095 28.662 95.997 28.6199 95.9249 28.5466C95.8529 28.4733 95.8125 28.3746 95.8125 28.2718C95.8134 28.1702 95.8544 28.0731 95.9265 28.0015C95.9987 27.93 96.0962 27.8899 96.1978 27.8899C96.2997 27.8899 96.3975 27.9299 96.4702 28.0013C96.5429 28.0728 96.5846 28.1699 96.5864 28.2718H96.5964Z" fill="white"/>
<path d="M104.121 26.871C104.121 26.9518 104.089 27.0294 104.031 27.0865C103.974 27.1437 103.897 27.1758 103.816 27.1758H103.337C103.167 27.1764 103 27.1301 102.855 27.0421C102.709 26.954 102.591 26.8276 102.513 26.6767C102.394 26.8306 102.242 26.9555 102.068 27.0419C101.894 27.1284 101.702 27.1742 101.508 27.1758C101.291 27.1828 101.077 27.1319 100.886 27.0282C100.696 26.9246 100.537 26.772 100.426 26.5862C100.305 26.7728 100.139 26.9251 99.9419 27.0284C99.7453 27.1317 99.5253 27.1825 99.3033 27.1758C99.1125 27.1788 98.9238 27.1359 98.753 27.0508C98.5822 26.9657 98.4343 26.8408 98.3218 26.6867C98.2411 26.837 98.1206 26.9622 97.9734 27.0485C97.8263 27.1348 97.6582 27.1788 97.4876 27.1758H97.032C96.952 27.1758 96.8753 27.1441 96.8188 27.0875C96.7622 27.031 96.7305 26.9543 96.7305 26.8743C96.7305 26.7944 96.7622 26.7177 96.8188 26.6611C96.8753 26.6046 96.952 26.5728 97.032 26.5728H97.4876C97.5462 26.5737 97.6045 26.5629 97.6589 26.5411C97.7133 26.5193 97.7629 26.4868 97.8046 26.4457C97.8464 26.4045 97.8796 26.3555 97.9022 26.3014C97.9249 26.2473 97.9365 26.1892 97.9365 26.1306V24.5293H98.5429V25.8257C98.5433 25.926 98.5638 26.0252 98.6031 26.1174C98.6425 26.2096 98.7 26.293 98.7721 26.3626C98.8442 26.4323 98.9296 26.4868 99.0231 26.5229C99.1167 26.559 99.2165 26.5759 99.3167 26.5728C99.4204 26.5774 99.5239 26.5608 99.6209 26.524C99.7179 26.4872 99.8065 26.4311 99.8811 26.359C99.9557 26.2869 100.015 26.2003 100.055 26.1046C100.095 26.0089 100.115 25.906 100.114 25.8023V24.5293H100.72V25.8257C100.719 25.926 100.739 26.0254 100.778 26.1177C100.817 26.2101 100.874 26.2935 100.947 26.3626C101.02 26.4317 101.106 26.4852 101.2 26.5196C101.294 26.5541 101.394 26.5687 101.494 26.5628C101.598 26.5683 101.702 26.5524 101.799 26.5162C101.896 26.48 101.985 26.4242 102.06 26.3523C102.134 26.2804 102.193 26.1938 102.233 26.098C102.273 26.0023 102.293 25.8993 102.292 25.7956V23.8525H102.898V26.1306C102.898 26.1885 102.909 26.2459 102.93 26.2996C102.952 26.3532 102.985 26.402 103.025 26.4431C103.066 26.4842 103.115 26.5168 103.168 26.5391C103.222 26.5613 103.279 26.5728 103.337 26.5728H103.816C103.896 26.5728 103.972 26.604 104.029 26.6597C104.086 26.7154 104.119 26.7913 104.121 26.871Z" fill="white"/>
<path d="M106.291 26.8643C106.292 26.9054 106.284 26.9461 106.268 26.9841C106.253 27.0221 106.23 27.0566 106.201 27.0856C106.172 27.1147 106.137 27.1376 106.099 27.1531C106.061 27.1686 106.021 27.1763 105.98 27.1759H105.765C105.596 27.1762 105.429 27.1363 105.278 27.0594C105.127 26.9825 104.997 26.8709 104.898 26.7337C104.803 26.8698 104.678 26.9811 104.531 27.0581C104.385 27.1351 104.222 27.1755 104.057 27.1759H103.795C103.752 27.1804 103.709 27.1758 103.668 27.1625C103.627 27.1491 103.589 27.1273 103.557 27.0984C103.525 27.0695 103.499 27.0341 103.482 26.9947C103.464 26.9552 103.455 26.9125 103.455 26.8694C103.455 26.8262 103.464 26.7835 103.482 26.744C103.499 26.7046 103.525 26.6693 103.557 26.6404C103.589 26.6115 103.627 26.5896 103.668 26.5763C103.709 26.5629 103.752 26.5583 103.795 26.5628H103.993C104.143 26.5611 104.286 26.5003 104.391 26.3937C104.497 26.2871 104.556 26.1432 104.556 25.9933V22.2178H105.169V26.0034C105.18 26.1545 105.247 26.2959 105.358 26.3996C105.468 26.5033 105.614 26.5615 105.765 26.5628H105.986C106.026 26.5624 106.066 26.5699 106.103 26.5848C106.14 26.5998 106.173 26.6219 106.202 26.6499C106.23 26.678 106.253 26.7114 106.268 26.7482C106.283 26.785 106.291 26.8245 106.291 26.8643Z" fill="white"/>
<path d="M105.651 26.871C105.651 26.791 105.682 26.7141 105.738 26.6566C105.794 26.5991 105.87 26.5654 105.95 26.5628H106.385C106.5 26.5628 106.61 26.5173 106.691 26.4363C106.772 26.3552 106.817 26.2453 106.817 26.1307V22.2178H107.424V26.1307C107.424 26.2666 107.398 26.4013 107.346 26.5271C107.294 26.6528 107.219 26.7672 107.123 26.8636C107.027 26.9601 106.913 27.0367 106.788 27.0891C106.662 27.1415 106.528 27.1688 106.392 27.1692H105.95C105.871 27.1683 105.795 27.1366 105.74 27.0809C105.684 27.0252 105.652 26.9498 105.651 26.871Z" fill="white"/>
<path d="M50.1709 32H0V0H7.73199L8.35176 1.42379C8.49581 1.75879 8.63987 2.0938 8.79397 2.40201C12.3244 9.98084 17.9898 16.3646 25.0955 20.7705C32.5245 16.1761 38.3778 9.42767 41.876 1.42379L42.4791 0H50.1843L50.1709 32ZM23.1558 27.2563H45.4271V5.02513C40.728 14.7387 32.8778 22.5747 23.1558 27.2563ZM4.73032 4.93802V27.1926C10.1337 26.8992 15.4334 25.5899 20.3518 23.3333C13.6579 18.6413 8.28304 12.3067 4.74372 4.93802H4.73032Z" fill="white"/>
</svg>
