<svg width="13" height="13" viewBox="0 0 13 13" fill="none" xmlns="http://www.w3.org/2000/svg">
<g id="2057743371641072514 1" clip-path="url(#clip0_358_464)">
<path id="Vector" d="M11.9894 4.18098C11.3843 2.75258 10.2473 1.61557 8.81887 1.01045C8.08468 0.701268 7.29608 0.541992 6.49944 0.541992C5.7028 0.541992 4.9142 0.701268 4.18 1.01045C2.75161 1.61557 1.6146 2.75258 1.00948 4.18098C0.700291 4.91517 0.541016 5.70377 0.541016 6.50041C0.541016 7.29705 0.700291 8.08565 1.00948 8.81985C1.6146 10.2482 2.75161 11.3853 4.18 11.9904C4.9142 12.2996 5.7028 12.4588 6.49944 12.4588C7.29608 12.4588 8.08468 12.2996 8.81887 11.9904C10.2473 11.3853 11.3843 10.2482 11.9894 8.81985C12.2986 8.08565 12.4579 7.29705 12.4579 6.50041C12.4579 5.70377 12.2986 4.91517 11.9894 4.18098ZM6.49944 11.3754C3.81133 11.3754 1.62444 9.18852 1.62444 6.50041C1.62444 3.81231 3.81133 1.62541 6.49944 1.62541C9.18754 1.62541 11.3744 3.81231 11.3744 6.50041C11.3744 9.18852 9.18754 11.3754 6.49944 11.3754Z" fill="white"/>
<path id="Vector_2" d="M7.04215 6.27514V3.24959C7.04215 3.10595 6.98509 2.9682 6.88352 2.86663C6.78196 2.76507 6.6442 2.70801 6.50057 2.70801C6.35693 2.70801 6.21918 2.76507 6.11761 2.86663C6.01604 2.9682 5.95898 3.10595 5.95898 3.24959V6.49959C5.95893 6.57072 5.97292 6.64115 6.00016 6.70686C6.02739 6.77256 6.06733 6.83224 6.11768 6.88248L7.74268 8.50748C7.79291 8.55804 7.85264 8.59819 7.91842 8.62563C7.98421 8.65306 8.05476 8.66724 8.12604 8.66735C8.19731 8.66746 8.26791 8.6535 8.33378 8.62627C8.39965 8.59903 8.4595 8.55907 8.50989 8.50866C8.56028 8.45825 8.60023 8.39839 8.62744 8.33251C8.65465 8.26663 8.66858 8.19603 8.66845 8.12475C8.66832 8.05348 8.65412 7.98293 8.62666 7.91715C8.59921 7.85138 8.55904 7.79167 8.50846 7.74145L7.04215 6.27514Z" fill="white"/>
</g>
<defs>
<clipPath id="clip0_358_464">
<rect width="13" height="13" fill="white"/>
</clipPath>
</defs>
</svg>
