<svg width="16" height="16" viewBox="0 0 16 16" fill="none" xmlns="http://www.w3.org/2000/svg">
<g id="7443996281683313909 1" clip-path="url(#clip0_358_456)">
<g id="Layer_x0020_1">
<g id="Group">
<path id="Vector" fill-rule="evenodd" clip-rule="evenodd" d="M9.73972 11.653H4.94183C4.687 11.653 4.687 11.2576 4.94183 11.2576H9.73972C9.99456 11.2576 9.99456 11.653 9.73972 11.653ZM10.0473 13.0414H3.7116C3.59737 13.0414 3.50949 12.9448 3.50949 12.8393V11.6794H2.3232C2.20897 11.6794 2.12109 11.5915 2.12109 11.4773V0.3525C2.12109 0.238264 2.20897 0.150391 2.3232 0.150391H10.9612C11.0666 0.150391 11.1633 0.238264 11.1633 0.3525V1.53H12.3496C12.455 1.53 12.5517 1.61788 12.5517 1.73211V10.537C13.7292 10.6337 14.6606 11.6267 14.6606 12.8393C14.6606 14.1135 13.6237 15.1504 12.3496 15.1504C11.1457 15.1504 10.1439 14.2189 10.0473 13.0414ZM11.2424 11.2752C9.73094 12.356 10.4954 14.7462 12.3496 14.7462C13.404 14.7462 14.2564 13.8938 14.2564 12.8393C14.2564 11.6091 13.1053 10.7304 11.9629 10.9676C11.5236 11.0555 11.3127 11.2576 11.2424 11.2752ZM3.90492 12.6372H10.0473C10.1439 11.5388 11.0402 10.6337 12.1475 10.537V1.93422H3.90492V12.6372ZM2.51652 11.2752H3.50949V1.73211C3.50949 1.61788 3.59737 1.53 3.7116 1.53H10.7591V0.545821H2.51652V11.2752ZM10.1791 12.0397C10.1879 12.0221 10.1879 12.0045 10.1967 11.9957L10.1791 12.0397ZM11.9893 13.7268C11.9366 13.7268 11.8926 13.7093 11.8487 13.6653L11.1808 12.9975C11.0051 12.8217 11.2863 12.5405 11.462 12.7163L11.9893 13.2435L13.2283 12.0045C13.4128 11.8288 13.694 12.11 13.5095 12.2857L12.1299 13.6653C12.0947 13.7093 12.042 13.7268 11.9893 13.7268ZM9.62549 3.31384H6.43568C6.17206 3.31384 6.17206 2.9184 6.43568 2.9184H9.62549C9.88032 2.9184 9.88032 3.31384 9.62549 3.31384ZM11.1105 4.50891H4.94183C4.687 4.50891 4.687 4.1047 4.94183 4.1047H11.1105C11.3742 4.1047 11.3742 4.50891 11.1105 4.50891ZM11.1105 5.69521H4.94183C4.687 5.69521 4.687 5.29978 4.94183 5.29978H11.1105C11.3742 5.29978 11.3742 5.69521 11.1105 5.69521ZM11.1105 6.89029H4.94183C4.687 6.89029 4.687 6.48607 4.94183 6.48607H11.1105C11.3742 6.48607 11.3742 6.89029 11.1105 6.89029ZM11.1105 8.07658H4.94183C4.687 8.07658 4.687 7.68115 4.94183 7.68115H11.1105C11.3742 7.68115 11.3742 8.07658 11.1105 8.07658ZM11.1105 9.27166H4.94183C4.687 9.27166 4.687 8.86744 4.94183 8.86744H11.1105C11.3742 8.86744 11.3742 9.27166 11.1105 9.27166ZM11.1105 10.4579H4.94183C4.687 10.4579 4.687 10.0625 4.94183 10.0625H11.1105C11.3742 10.0625 11.3742 10.4579 11.1105 10.4579Z" fill="white"/>
</g>
</g>
</g>
<defs>
<clipPath id="clip0_358_456">
<rect width="15" height="15" fill="white" transform="translate(0.890625 0.150391)"/>
</clipPath>
</defs>
</svg>
