<svg width="25" height="24" viewBox="0 0 25 24" fill="none" xmlns="http://www.w3.org/2000/svg">
<g id="Iconsax/Bold/facebook">
<path id="Vector" d="M22.5 16.19C22.5 19.83 20.33 22 16.69 22H15.5C14.95 22 14.5 21.55 14.5 21V15.23C14.5 14.96 14.72 14.73 14.99 14.73L16.75 14.7C16.89 14.69 17.01 14.59 17.04 14.45L17.39 12.54C17.3968 12.4967 17.3941 12.4525 17.3822 12.4103C17.3702 12.3681 17.3492 12.3291 17.3207 12.2958C17.2922 12.2625 17.2568 12.2358 17.217 12.2176C17.1771 12.1993 17.1338 12.1899 17.09 12.19L14.96 12.22C14.68 12.22 14.46 12 14.45 11.73L14.41 9.28C14.41 9.12 14.54 8.98 14.71 8.98L17.11 8.94C17.28 8.94 17.41 8.81 17.41 8.64L17.37 6.24C17.37 6.07 17.24 5.94 17.07 5.94L14.37 5.98C13.9759 5.98599 13.5868 6.06969 13.225 6.22632C12.8633 6.38295 12.5361 6.60942 12.262 6.89276C11.988 7.1761 11.7725 7.51073 11.628 7.87748C11.4835 8.24422 11.4128 8.63588 11.42 9.03L11.47 11.78C11.48 12.06 11.26 12.28 10.98 12.29L9.78 12.31C9.61 12.31 9.48 12.44 9.48 12.61L9.51 14.51C9.51 14.68 9.64 14.81 9.81 14.81L11.01 14.79C11.29 14.79 11.51 15.01 11.52 15.28L11.61 20.98C11.62 21.54 11.17 22 10.61 22H8.31C4.67 22 2.5 19.83 2.5 16.18V7.81C2.5 4.17 4.67 2 8.31 2H16.69C20.33 2 22.5 4.17 22.5 7.81V16.19Z" fill="white"/>
</g>
</svg>
