<svg width="76" height="20" viewBox="0 0 76 20" fill="none" xmlns="http://www.w3.org/2000/svg">
<g id="focal X LOGO">
<g id="Layer 1">
<path id="Vector" d="M4.54212 0.0233203V1.00623C4.35797 0.985788 4.17276 0.975983 3.98746 0.976862C2.02648 0.976862 0.990532 2.27762 0.990532 4.73834V7.23707H2.80738V8.15865H0.987038V18.9439H0V4.62692C0 3.0446 0.414905 1.79739 1.19929 1.02091C1.88411 0.345486 2.82048 0 3.98396 0C4.18661 0 4.36742 0.00777343 4.54212 0.0233203Z" fill="white"/>
<path id="Vector_2" d="M52.0554 0.0612793H51.0684V18.987H52.0554V0.0612793Z" fill="white"/>
<path id="Vector_3" d="M59.7109 2.54439C59.5829 2.38696 59.4879 2.20594 59.4313 2.01187C59.3748 1.8178 59.3578 1.61454 59.3814 1.41393C59.405 1.21331 59.4687 1.01934 59.5688 0.843287C59.6689 0.667237 59.8034 0.512625 59.9645 0.388442C60.1256 0.264258 60.31 0.172983 60.5071 0.119923C60.7042 0.0668637 60.91 0.0530792 61.1125 0.0793713C61.315 0.105663 61.5102 0.171508 61.6868 0.273074C61.8633 0.374641 62.0177 0.509903 62.1409 0.670994L66.5083 6.19877C66.5415 6.24109 66.5791 6.28514 66.6157 6.32401C66.0809 6.41033 65.5766 6.62825 65.1492 6.95773C64.7218 7.28721 64.3851 7.71766 64.17 8.2095C64.1423 8.16181 64.111 8.11619 64.0765 8.07303L59.7109 2.54439Z" fill="white"/>
<path id="Vector_4" d="M74.6718 16.5305C74.8004 16.6877 74.896 16.8686 74.9532 17.0627C75.0104 17.2568 75.0279 17.4601 75.0048 17.661C74.9817 17.8618 74.9183 18.0561 74.8185 18.2326C74.7187 18.409 74.5844 18.564 74.4234 18.6886C74.2624 18.8131 74.078 18.9048 73.8808 18.9582C73.6836 19.0116 73.4777 19.0256 73.275 18.9996C73.0722 18.9735 72.8768 18.9078 72.7 18.8062C72.5232 18.7047 72.3687 18.5694 72.2453 18.4083L67.8779 12.8805C67.8062 12.788 67.7224 12.7052 67.6289 12.6343C68.1762 12.5515 68.6928 12.331 69.1292 11.9941C69.5656 11.6571 69.9071 11.2149 70.121 10.71C70.1703 10.8137 70.2313 10.9116 70.3026 11.0019L74.6718 16.5305Z" fill="white"/>
<path id="Vector_5" d="M66.7268 12.6551C66.6466 12.7211 66.574 12.7955 66.5102 12.8771L62.1428 18.4049C61.891 18.7235 61.5214 18.9302 61.1155 18.9794C60.7096 19.0287 60.3005 18.9165 59.9783 18.6675C59.656 18.4185 59.447 18.0531 59.3972 17.6517C59.3474 17.2503 59.4609 16.8458 59.7127 16.5272L64.0802 10.9994C64.1229 10.9446 64.1617 10.8868 64.1963 10.8267C64.427 11.3185 64.7806 11.744 65.2238 12.063C65.6671 12.3821 66.1853 12.5841 66.7294 12.65" fill="white"/>
<path id="Vector_6" d="M67.7352 6.35352C67.7859 6.30641 67.8329 6.25559 67.8759 6.2015L72.2433 0.673728C72.3678 0.516238 72.5224 0.38453 72.6983 0.286123C72.8742 0.187716 73.0681 0.124538 73.2687 0.100197C73.4693 0.0758549 73.6728 0.090826 73.8676 0.144255C74.0624 0.197684 74.2446 0.288525 74.4039 0.411591C74.5631 0.534656 74.6963 0.687537 74.7959 0.861504C74.8954 1.03547 74.9593 1.22712 74.9839 1.4255C75.0085 1.62388 74.9934 1.82512 74.9393 2.01771C74.8853 2.21031 74.7934 2.3905 74.669 2.54799L70.3015 8.07576C70.2381 8.15623 70.1833 8.24308 70.1382 8.33488C69.9398 7.83068 69.6151 7.38455 69.1947 7.0383C68.7742 6.69206 68.2718 6.45703 67.7344 6.35524" fill="white"/>
<path id="Vector_7" d="M69.2236 9.53792C69.2238 9.9353 69.1048 10.3238 68.8816 10.6543C68.6585 10.9848 68.3412 11.2424 67.97 11.3946C67.5988 11.5468 67.1902 11.5867 66.796 11.5093C66.4019 11.4319 66.0398 11.2406 65.7555 10.9597C65.4713 10.6787 65.2777 10.3208 65.1993 9.93104C65.1208 9.54131 65.161 9.13732 65.3147 8.77017C65.4685 8.40303 65.7289 8.08921 66.063 7.86842C66.3972 7.64763 66.79 7.52979 67.1919 7.52979C67.7306 7.52979 68.2472 7.74133 68.6282 8.1179C69.0092 8.49448 69.2234 9.00525 69.2236 9.53792Z" fill="#FF8500"/>
<path id="Vector_8" d="M11.427 7.16284C8.03963 7.16284 5.4873 9.70735 5.4873 13.0819V13.1251C5.4873 16.4746 8.04137 18.9983 11.427 18.9983C14.8126 18.9983 17.3667 16.4547 17.3667 13.0802V13.0421C17.3667 9.69266 14.8118 7.16889 11.427 7.16889V7.16284ZM16.4216 13.0603V13.1035C16.4216 15.9537 14.2842 18.1052 11.4506 18.1052C8.63884 18.1052 6.43591 15.908 6.43591 13.1035V13.0603C6.43591 10.21 8.57245 8.05851 11.406 8.05851C14.2187 8.05851 16.4216 10.2558 16.4216 13.0603Z" fill="white"/>
<path id="Vector_9" d="M45.3903 8.44711C44.5404 7.60672 43.2983 7.18091 41.699 7.18091C40.3599 7.18091 39.1388 7.48407 37.7395 8.16382L37.5395 8.26142L37.9046 9.07331L38.1203 8.97053C39.4183 8.35297 40.5154 8.07744 41.6772 8.07744C44.2496 8.07744 45.6078 9.33933 45.6078 11.7266V12.32C44.341 11.9336 43.023 11.7365 41.6972 11.7353C38.571 11.7353 36.5498 13.1863 36.5498 15.4302V15.4743C36.5498 17.8789 38.8069 18.9732 40.9041 18.9732C43.2337 18.9732 44.8348 17.8927 45.6078 16.826V19.0017H46.5364V11.7042C46.5364 10.3162 46.1398 9.18991 45.3886 8.44711H45.3903ZM45.6078 13.2597V14.494C45.6078 16.2171 43.8181 18.0767 40.926 18.0767C39.3458 18.0767 37.501 17.39 37.501 15.4527V15.4087C37.501 13.3617 39.6804 12.6327 41.72 12.6327C43.1699 12.6327 44.4068 12.8322 45.6078 13.2597Z" fill="white"/>
<path id="Vector_10" d="M27.7228 8.0757C28.7536 8.06501 29.7604 8.38302 30.594 8.9826L30.6097 8.99383H32.023L31.9173 8.89623C31.1478 8.16121 29.8768 7.18262 27.7438 7.18262C24.5215 7.18262 21.8984 9.82386 21.8984 13.0697V13.1112C21.8984 16.3596 24.5119 19.0017 27.7228 19.0017C29.3466 19.0017 30.718 18.4334 31.9156 17.2639L32.0178 17.1637H30.6132L30.5975 17.1749C29.7762 17.7879 28.7727 18.1147 27.7438 18.1043C25.0447 18.1043 22.8523 15.8586 22.8523 13.0904V13.049C22.8523 10.2609 24.9932 8.07743 27.7263 8.07743" fill="white"/>
</g>
</g>
</svg>
