<svg width="32" height="32" viewBox="0 0 32 32" fill="none" xmlns="http://www.w3.org/2000/svg">
<path d="M27.7443 6.81875H24.5693V4.0125C25.1131 3.95 25.5381 3.49375 25.5381 2.93125C25.5381 2.33125 25.0506 1.84375 24.4506 1.84375H18.9756C18.3756 1.84375 17.8881 2.33125 17.8881 2.93125C17.8881 3.46875 18.2756 3.9125 18.7881 4.00625V6.825H15.3443C14.6068 6.825 14.0068 7.425 14.0068 8.16875V9.70625H16.3818C17.1568 9.70625 17.8381 10.125 18.2068 10.75H19.9693H25.4506C25.6943 10.75 25.8881 10.9438 25.8881 11.1875C25.8881 11.4312 25.6943 11.625 25.4506 11.625H24.3131V12.2437C24.3131 12.4875 24.1193 12.6812 23.8756 12.6812C23.6318 12.6812 23.4381 12.4875 23.4381 12.2437V11.625H18.5693C18.5443 11.625 18.5193 11.625 18.4943 11.6187H18.4881C18.4943 11.6875 18.5006 11.7562 18.5006 11.825V14.6313H21.5506C22.8568 14.6313 23.9256 15.6938 23.9256 17.0063V28.6812C23.9256 29.25 23.7256 29.7687 23.3881 30.1812H27.7506C28.4881 30.1812 29.0881 29.5812 29.0881 28.8438V8.15625C29.0818 7.41875 28.4818 6.81875 27.7443 6.81875ZM19.6631 6.81875V4.01875H23.6943V6.81875H19.6631Z" fill="#101F46"/>
<path d="M2.91895 16.9941V28.6691C2.91895 29.5004 3.5877 30.1691 4.41894 30.1691H6.51895V15.4941H4.41894C3.5877 15.4941 2.91895 16.1629 2.91895 16.9941Z" fill="#101F46"/>
<path d="M21.5443 15.4941H19.4443V30.1629H21.5443C22.3693 30.1629 23.0443 29.4941 23.0443 28.6629V16.9941C23.0443 16.1629 22.3693 15.4941 21.5443 15.4941Z" fill="#101F46"/>
<path d="M14.9193 15.4941H11.0381V30.1629H14.9193V15.4941Z" fill="#101F46"/>
<path d="M17.6186 15.4934V11.8121C17.6186 11.1246 17.0623 10.5684 16.3748 10.5684H9.5873C8.8998 10.5684 8.34355 11.1246 8.34355 11.8121V15.4934H7.39355V30.1621H10.1623V15.4934H9.2123V11.8121C9.2123 11.6059 9.3748 11.4434 9.58105 11.4434H16.3748C16.5811 11.4434 16.7436 11.6059 16.7436 11.8121V15.4934H15.7936V30.1621H18.5623V15.4934H17.6186Z" fill="#101F46"/>
</svg>
