<svg width="32" height="32" viewBox="0 0 32 32" fill="none" xmlns="http://www.w3.org/2000/svg">
<g id="fluent-emoji-high-contrast:hotel">
<path id="Vector" fill-rule="evenodd" clip-rule="evenodd" d="M21.1504 5.02H27.8404C28.8384 5.02 29.6664 5.796 29.9184 6.846C29.9854 7.13 29.9954 7.368 29.8244 7.621C29.7429 7.74371 29.6323 7.84436 29.5025 7.91397C29.3727 7.98359 29.2277 8.02001 29.0804 8.02H29.0004V30H3.00036V8.02H2.90036C2.74967 8.01983 2.60146 7.98161 2.46947 7.90889C2.33749 7.83616 2.22601 7.73129 2.14536 7.604C1.97536 7.34 1.99736 7.084 2.07036 6.792C2.32336 5.769 3.14036 5.02 4.12036 5.02H10.8104C11.3283 4.10458 12.0796 3.34282 12.9878 2.81231C13.896 2.28181 14.9286 2.00152 15.9804 2C17.0321 2.00152 18.0647 2.28181 18.9729 2.81231C19.8811 3.34282 20.6324 4.10458 21.1504 5.02ZM10.0004 29.62C10.0004 29.28 10.2804 29 10.6214 29H11.0004V8.02H10.0004V29.62ZM21.3794 29H21.0004V8.02H22.0004V29.62C22.0004 29.28 21.7204 29 21.3794 29ZM15.9904 3H15.9954C15.9937 3 15.992 3 15.9904 3ZM6.00036 21.306V23.689C6.00036 23.859 5.86036 24 5.68036 24H4.31036C4.14036 24 4.00036 23.86 4.00036 23.69V21.306C4.00036 21.136 4.14036 20.996 4.31036 20.996H5.69036C5.86036 20.996 6.00036 21.136 6.00036 21.306ZM9.00036 21.306V23.689C9.00036 23.859 8.86036 24 8.68036 24H7.31036C7.14036 24 7.00036 23.86 7.00036 23.69V21.306C7.00036 21.136 7.14036 20.996 7.31036 20.996H8.69036C8.86036 20.996 9.00036 21.136 9.00036 21.306ZM6.00036 16.298V18.682C6.00036 18.852 5.86036 18.992 5.68036 18.992H4.31036C4.14036 18.992 4.00036 18.852 4.00036 18.682V16.298C4.00036 16.128 4.14036 15.988 4.31036 15.988H5.69036C5.86036 15.988 6.00036 16.128 6.00036 16.298ZM9.00036 16.298V18.682C9.00036 18.852 8.86036 18.992 8.68036 18.992H7.31036C7.14036 18.992 7.00036 18.852 7.00036 18.682V16.298C7.00036 16.128 7.14036 15.988 7.31036 15.988H8.69036C8.86036 15.988 9.00036 16.128 9.00036 16.298ZM6.00036 11.311V13.694C6.00036 13.864 5.86036 14.004 5.68036 14.004H4.31036C4.14036 14.004 4.00036 13.864 4.00036 13.694V11.31C4.00036 11.14 4.14036 11 4.31036 11H5.69036C5.86036 11 6.00036 11.141 6.00036 11.311ZM9.00036 11.311V13.694C9.00036 13.864 8.86036 14.004 8.68036 14.004H7.31036C7.14036 14.004 7.00036 13.864 7.00036 13.694V11.31C7.00036 11.14 7.14036 11 7.31036 11H8.69036C8.86036 11 9.00036 11.141 9.00036 11.311ZM24.9944 21.306V23.689C24.9944 23.859 24.8544 24 24.6844 24H23.3104C23.2281 23.9997 23.1493 23.967 23.0911 23.909C23.0329 23.8509 22.9999 23.7722 22.9994 23.69V21.306C22.9994 21.136 23.1394 20.996 23.3094 20.996H24.6824C24.8524 20.996 24.9944 21.136 24.9944 21.306ZM28.0004 21.306V23.689C28.0004 23.859 27.8604 24 27.6904 24H26.3174C26.2351 23.9997 26.1563 23.967 26.0981 23.909C26.0399 23.8509 26.0069 23.7722 26.0064 23.69V21.306C26.0064 21.136 26.1464 20.996 26.3164 20.996H27.6894C27.8594 20.996 28.0004 21.136 28.0004 21.306ZM24.9944 16.298V18.682C24.9944 18.852 24.8544 18.992 24.6844 18.992H23.3104C23.2281 18.9917 23.1493 18.959 23.0911 18.901C23.0329 18.8429 22.9999 18.7642 22.9994 18.682V16.298C22.9994 16.128 23.1394 15.988 23.3094 15.988H24.6824C24.8524 15.988 24.9944 16.128 24.9944 16.298ZM28.0004 16.298V18.682C28.0004 18.852 27.8604 18.992 27.6904 18.992H26.3174C26.2351 18.9917 26.1563 18.959 26.0981 18.901C26.0399 18.8429 26.0069 18.7642 26.0064 18.682V16.298C26.0064 16.128 26.1464 15.988 26.3164 15.988H27.6894C27.8594 15.988 28.0004 16.128 28.0004 16.298ZM24.9944 11.311V13.694C24.9944 13.864 24.8544 14.004 24.6844 14.004H23.3104C23.2281 14.0037 23.1493 13.971 23.0911 13.913C23.0329 13.8549 22.9999 13.7762 22.9994 13.694V11.31C22.9994 11.14 23.1394 11 23.3094 11H24.6824C24.8524 11 24.9934 11.14 24.9934 11.31L24.9944 11.311ZM28.0004 11.311V13.694C28.0004 13.864 27.8604 14.004 27.6904 14.004H26.3174C26.2351 14.0037 26.1563 13.971 26.0981 13.913C26.0399 13.8549 26.0069 13.7762 26.0064 13.694V11.31C26.0064 11.14 26.1464 11 26.3164 11H27.6894C27.8594 11 28.0004 11.141 28.0004 11.311ZM15.0004 13.31V15.69C15.0004 15.86 14.8604 16 14.6884 16H13.3124C13.23 16 13.1509 15.9674 13.0924 15.9093C13.034 15.8512 13.0009 15.7724 13.0004 15.69V13.31C13.0004 13.14 13.1404 13 13.3124 13H14.6884C14.8594 13 15.0004 13.14 15.0004 13.31ZM15.1374 27H13.3634C13.3152 26.9997 13.2675 26.9899 13.2231 26.9712C13.1787 26.9524 13.1385 26.925 13.1048 26.8906C13.071 26.8562 13.0444 26.8155 13.0265 26.7708C13.0086 26.726 12.9997 26.6782 13.0004 26.63V22.002H15.5004V26.631C15.5004 26.841 15.3334 27 15.1374 27ZM16.5004 21.002V21H15.5004V21.002H13.0004V21H11.9544C11.8949 21.0005 11.836 20.9893 11.7809 20.9669C11.7259 20.9445 11.6758 20.9115 11.6336 20.8696C11.5914 20.8278 11.5579 20.778 11.535 20.7231C11.5121 20.6683 11.5004 20.6094 11.5004 20.55C11.5004 20.47 11.5304 20.4 11.5604 20.34C11.5664 20.334 11.5694 20.332 11.5704 20.329V20.32C12.0267 19.5487 12.6762 18.9098 13.4548 18.4661C14.2334 18.0224 15.1142 17.7894 16.0104 17.79C16.9065 17.7894 17.7873 18.0224 18.5659 18.4661C19.3445 18.9098 19.994 19.5487 20.4504 20.32C20.4554 20.325 20.4554 20.332 20.4554 20.34C20.4554 20.348 20.4554 20.355 20.4604 20.36C20.4904 20.41 20.5004 20.48 20.5004 20.55C20.5004 20.6094 20.4886 20.6683 20.4657 20.7231C20.4429 20.778 20.4094 20.8278 20.3671 20.8696C20.3249 20.9115 20.2749 20.9445 20.2198 20.9669C20.1647 20.9893 20.1058 21.0005 20.0464 21H19.0004V21.002H16.5004ZM16.5004 22.002V26.631C16.5004 26.841 16.6674 27 16.8634 27H18.6374C18.8334 27 19.0004 26.84 19.0004 26.63V22.002H16.5004ZM19.0004 15.69V13.31C19.0004 13.14 18.8604 13 18.6884 13H17.3124C17.23 13.0003 17.1511 13.0329 17.0927 13.091C17.0343 13.149 17.0011 13.2277 17.0004 13.31V15.69C17.0004 15.86 17.1404 16 17.3124 16H18.6884C18.8594 16 19.0004 15.86 19.0004 15.69ZM17.5114 6H17.4914C17.3617 6.00053 17.2376 6.05239 17.1462 6.14422C17.0547 6.23606 17.0034 6.36039 17.0034 6.49V8H14.9984V6.49C14.9984 6.36004 14.9467 6.23541 14.8548 6.14352C14.7629 6.05162 14.6383 6 14.5084 6H14.4884C14.3587 6.00053 14.2346 6.05239 14.1432 6.14422C14.0517 6.23606 14.0004 6.36039 14.0004 6.49V10.51C14.0004 10.78 14.2204 11 14.4894 11H14.5094C14.6391 10.9997 14.7635 10.948 14.8552 10.8561C14.9469 10.7643 14.9984 10.6398 14.9984 10.51V9.01H17.0034V10.51C17.0034 10.78 17.2224 11 17.4914 11H17.5114C17.6411 10.9997 17.7655 10.948 17.8572 10.8561C17.9489 10.7643 18.0004 10.6398 18.0004 10.51V6.49C18.0004 6.36022 17.9489 6.23573 17.8572 6.14387C17.7655 6.05201 17.6411 6.00026 17.5114 6Z" fill="#101F46"/>
</g>
</svg>
