<svg width="139" height="32" viewBox="0 0 139 32" fill="none" xmlns="http://www.w3.org/2000/svg">
<g id="Layer 3">
<g id="Layer 1">
<path id="Vector" d="M62.646 13.7091L61.7281 16.081H59.7783L64.1334 4.99219H66.0329L70.455 16.081H68.5086L67.574 13.7058L62.646 13.7091ZM65.1184 6.81798L63.2323 12.1245H67.0011L65.1184 6.81798Z" fill="white"/>
<path id="Vector_2" d="M71.7383 4.99512H73.4971V16.0805H71.7383V4.99512Z" fill="white"/>
<path id="Vector_3" d="M88.0703 10.9683V16.0805H86.2948V11.4272C86.2948 10.3485 85.551 9.55789 84.5862 9.55789C84.3465 9.56028 84.1097 9.61111 83.8901 9.70732C83.6706 9.80352 83.4727 9.94312 83.3084 10.1177C83.1441 10.2923 83.0169 10.4983 82.9342 10.7234C82.8515 10.9484 82.8152 11.1878 82.8274 11.4272V16.0805H81.072V11.4272C81.0828 11.1895 81.046 10.9521 80.9639 10.7287C80.8817 10.5054 80.7558 10.3007 80.5936 10.1266C80.4314 9.95256 80.2361 9.81259 80.0191 9.71493C79.8021 9.61727 79.5678 9.56388 79.3299 9.55789C79.0911 9.56065 78.8552 9.61185 78.6367 9.70841C78.4182 9.80496 78.2216 9.94486 78.0587 10.1196C77.8959 10.2944 77.7702 10.5004 77.6892 10.7252C77.6083 10.9499 77.5738 11.1888 77.5879 11.4272V16.0805H75.8291V8.16425H77.5544V9.41383C77.8047 8.96974 78.1703 8.60147 78.6125 8.34791C79.0547 8.09436 79.5573 7.96493 80.067 7.9733C80.6036 7.96416 81.1307 8.11639 81.5799 8.41026C82.0291 8.70414 82.3796 9.12611 82.5862 9.62154C82.8274 9.1184 83.2085 8.69539 83.6837 8.40309C84.159 8.1108 84.7084 7.96158 85.2663 7.9733C86.8978 7.9733 88.0703 9.27313 88.0703 10.9683Z" fill="white"/>
<path id="Vector_4" d="M97.5105 16.0813H95.7818V14.7413C95.5247 15.2178 95.1415 15.6145 94.6742 15.888C94.2069 16.1616 93.6733 16.3014 93.1319 16.2923C92.3628 16.2941 91.6243 15.9907 91.0785 15.4487C90.5327 14.9067 90.2242 14.1704 90.2207 13.4012V8.16504H91.9962V12.8049C91.9855 13.0582 92.0262 13.311 92.1157 13.5481C92.2053 13.7853 92.3419 14.0018 92.5173 14.1848C92.6927 14.3678 92.9033 14.5134 93.1365 14.6129C93.3696 14.7124 93.6205 14.7636 93.874 14.7636C94.1275 14.7636 94.3783 14.7124 94.6115 14.6129C94.8446 14.5134 95.0553 14.3678 95.2307 14.1848C95.4061 14.0018 95.5427 13.7853 95.6322 13.5481C95.7218 13.311 95.7624 13.0582 95.7517 12.8049L95.7349 8.16504H97.5105V16.0813Z" fill="white"/>
<path id="Vector_5" d="M102.071 12.9784L101.612 13.501V16.0805H99.8535V4.99512H101.612V11.4742L105.096 8.1643H107.14L103.401 11.8494L107.204 16.0805H105.113L102.071 12.9784Z" fill="white"/>
<path id="Vector_6" d="M115.789 10.9047V16.0805H114.013V11.3469C114.024 11.1 113.984 10.8536 113.896 10.6226C113.808 10.3916 113.674 10.1809 113.503 10.0032C113.331 9.82557 113.125 9.68468 112.897 9.58912C112.669 9.49357 112.424 9.44534 112.177 9.44738C111.916 9.44632 111.657 9.49805 111.416 9.59945C111.175 9.70086 110.957 9.84987 110.775 10.0375C110.593 10.2252 110.45 10.4477 110.356 10.6917C110.262 10.9357 110.219 11.1961 110.228 11.4574V16.0805H108.469V4.99512H110.217V9.32008C110.63 8.54286 111.658 8.00349 112.847 8.00349C113.235 7.98725 113.621 8.05087 113.982 8.19039C114.344 8.32991 114.673 8.54235 114.949 8.81448C115.225 9.08662 115.442 9.41262 115.586 9.77222C115.731 10.1318 115.8 10.5173 115.789 10.9047Z" fill="white"/>
<path id="Vector_7" d="M118.67 14.4216V9.73148H117.119V8.16365H118.687V5.66113H120.446V8.16365H122.791V9.71473H120.446V14.2775C120.445 14.3068 120.45 14.336 120.461 14.3633C120.471 14.3905 120.488 14.4152 120.508 14.436C120.529 14.4567 120.554 14.4729 120.581 14.4837C120.608 14.4945 120.638 14.4996 120.667 14.4987H122.804V16.0799H120.335C119.896 16.0773 119.475 15.9019 119.163 15.5917C118.852 15.2815 118.675 14.8612 118.67 14.4216Z" fill="white"/>
<path id="Vector_8" d="M129.678 16.0799V14.6561C129.283 15.641 128.285 16.2574 126.891 16.2574C125.022 16.2574 124.023 15.2122 124.023 13.7214C124.023 11.6008 126.322 10.9208 129.457 11.3764L129.441 10.8705C129.441 9.80853 128.633 9.34957 127.668 9.34957C127.244 9.34689 126.825 9.4394 126.441 9.62029C126.057 9.80118 125.719 10.0658 125.451 10.3948L124.499 9.38977C124.914 8.92472 125.425 8.55512 125.996 8.30644C126.567 8.05775 127.186 7.93588 127.809 7.94923C129.789 7.94923 131.183 9.24906 131.183 11.1184V16.0799H129.678ZM125.749 13.6075C125.749 14.4316 126.224 14.9476 127.32 14.9476C128.66 14.9476 129.457 14.1737 129.457 12.8739V12.3948C127.223 12.0263 125.749 12.4249 125.749 13.6109V13.6075Z" fill="white"/>
<path id="Vector_9" d="M138.121 8.08404L138.091 9.75908C137.756 9.72893 137.421 9.71218 137.086 9.71218C135.722 9.71218 134.915 10.5363 134.915 11.9768V16.0807H133.156V8.16444H134.868V9.58823C135.096 9.10922 135.456 8.70479 135.905 8.42192C136.354 8.13906 136.874 7.98937 137.404 7.99024C137.646 7.99092 137.887 8.02244 138.121 8.08404Z" fill="white"/>
<path id="Vector_10" d="M59.4238 22.5264V21.709H64.5863V22.5264H62.4557V28.1143H61.5746V22.5264H59.4238Z" fill="white"/>
<path id="Vector_11" d="M64.4389 25.7959C64.4622 25.1696 64.7274 24.5766 65.1787 24.1417C65.6301 23.7068 66.2325 23.4639 66.8593 23.4639C67.4861 23.4639 68.0885 23.7068 68.5398 24.1417C68.9912 24.5766 69.2564 25.1696 69.2797 25.7959C69.291 26.1175 69.2359 26.4379 69.118 26.7372C69.0001 27.0366 68.8218 27.3084 68.5943 27.536C68.3668 27.7635 68.0949 27.9417 67.7956 28.0596C67.4962 28.1775 67.1758 28.2326 66.8543 28.2214C66.532 28.2373 66.21 28.1854 65.909 28.069C65.6081 27.9526 65.3349 27.7744 65.1072 27.5457C64.8796 27.3171 64.7024 27.0432 64.5873 26.7418C64.4721 26.4404 64.4216 26.1181 64.4389 25.7959ZM68.4288 25.816C68.4288 24.8378 67.7789 24.141 66.8744 24.141C65.9698 24.141 65.2998 24.8277 65.2998 25.816C65.2998 26.8043 65.9296 27.4911 66.8543 27.4911C67.07 27.4935 67.284 27.4511 67.4826 27.3666C67.6811 27.2822 67.8601 27.1575 68.008 27.0004C68.156 26.8433 68.2697 26.6573 68.3422 26.454C68.4146 26.2507 68.4441 26.0346 68.4288 25.8194V25.816Z" fill="white"/>
<path id="Vector_12" d="M74.4794 28.1139H73.6553V27.2998C73.5062 27.5849 73.2812 27.8231 73.005 27.988C72.7289 28.153 72.4124 28.2383 72.0908 28.2345C71.637 28.2336 71.2021 28.053 70.8813 27.7321C70.5604 27.4113 70.3798 26.9763 70.3789 26.5226V23.541H71.2298V26.2479C71.2298 26.5669 71.3565 26.8728 71.5821 27.0983C71.8076 27.3239 72.1135 27.4506 72.4325 27.4506C72.7515 27.4506 73.0574 27.3239 73.2829 27.0983C73.5085 26.8728 73.6352 26.5669 73.6352 26.2479V23.541H74.4794V28.1139Z" fill="white"/>
<path id="Vector_13" d="M78.6871 23.5039L78.6603 24.2979C78.476 24.2979 78.2918 24.2711 78.1008 24.2711C77.9184 24.2607 77.7358 24.2898 77.5656 24.3563C77.3954 24.4228 77.2415 24.5251 77.1144 24.6564C76.9873 24.7877 76.8899 24.9447 76.8289 25.117C76.7678 25.2893 76.7446 25.4726 76.7608 25.6546V28.1136H75.9199V23.5407H76.744V24.3984C76.8805 24.1151 77.094 23.8759 77.36 23.7083C77.626 23.5406 77.9338 23.4512 78.2482 23.4503C78.3965 23.4445 78.5446 23.4626 78.6871 23.5039Z" fill="white"/>
<path id="Vector_14" d="M79.5274 21.9932C79.5264 21.8486 79.5826 21.7095 79.6835 21.6061C79.7845 21.5026 79.9222 21.4431 80.0667 21.4404C80.2037 21.4512 80.3316 21.5132 80.4249 21.6141C80.5182 21.715 80.57 21.8474 80.57 21.9848C80.57 22.1222 80.5182 22.2546 80.4249 22.3555C80.3316 22.4564 80.2037 22.5185 80.0667 22.5292C79.9253 22.5258 79.7906 22.4684 79.6902 22.3687C79.5899 22.269 79.5316 22.1346 79.5274 21.9932ZM80.4989 23.5409V28.1138H79.658V23.5409H80.4989Z" fill="white"/>
<path id="Vector_15" d="M81.5605 27.3832L81.9525 26.8237C82.1614 27.0535 82.4173 27.2356 82.7029 27.3576C82.9885 27.4796 83.297 27.5386 83.6074 27.5306C84.2775 27.5306 84.6125 27.2458 84.6125 26.8438C84.6125 26.5088 84.4014 26.3312 83.852 26.2006L82.9542 25.9828C82.0999 25.7952 81.7414 25.3698 81.7414 24.7567C81.7414 23.9058 82.4282 23.3664 83.5806 23.3664C83.923 23.3394 84.2671 23.3905 84.5869 23.5158C84.9066 23.6412 85.1937 23.8375 85.4265 24.09L85.0245 24.6461C84.8384 24.4552 84.6143 24.3053 84.3668 24.2061C84.1193 24.1069 83.8538 24.0605 83.5873 24.0699C82.9408 24.0699 82.6024 24.3178 82.6024 24.7399C82.6024 25.0515 82.8034 25.2324 83.3495 25.3597L84.2373 25.5808C85.1451 25.8019 85.4935 26.2039 85.4935 26.817C85.4935 27.6847 84.8068 28.2441 83.6175 28.2441C83.2315 28.2689 82.845 28.204 82.4881 28.0547C82.1313 27.9053 81.8138 27.6755 81.5605 27.3832Z" fill="white"/>
<path id="Vector_16" d="M93.5743 25.1487V28.1068H92.7234V25.3597C92.7306 25.211 92.708 25.0623 92.6568 24.9225C92.6056 24.7827 92.527 24.6545 92.4256 24.5456C92.3241 24.4366 92.2018 24.3491 92.066 24.2881C91.9302 24.2271 91.7835 24.1939 91.6346 24.1905C91.4834 24.1914 91.3338 24.2225 91.1947 24.2821C91.0557 24.3417 90.93 24.4285 90.825 24.5375C90.7201 24.6465 90.6381 24.7754 90.5838 24.9166C90.5295 25.0578 90.5041 25.2085 90.509 25.3597V28.1068H89.6681V25.3597C89.6681 25.0647 89.551 24.7818 89.3424 24.5733C89.1338 24.3647 88.8509 24.2475 88.5559 24.2475C88.2609 24.2475 87.978 24.3647 87.7695 24.5733C87.5609 24.7818 87.4437 25.0647 87.4437 25.3597V28.1068H86.5928V23.5406H87.437V24.291C87.5807 24.0266 87.794 23.8066 88.0539 23.6549C88.3137 23.5031 88.6101 23.4253 88.911 23.4301C89.2318 23.4244 89.5465 23.5179 89.8121 23.6978C90.0777 23.8776 90.2813 24.1351 90.3951 24.4351C90.5279 24.1307 90.7481 23.8726 91.0279 23.6937C91.3076 23.5147 91.6343 23.423 91.9663 23.4301C92.186 23.4334 92.4027 23.4809 92.6036 23.5699C92.8044 23.6588 92.9853 23.7873 93.1354 23.9478C93.2855 24.1082 93.4017 24.2972 93.4772 24.5035C93.5526 24.7099 93.5856 24.9293 93.5743 25.1487Z" fill="white"/>
<path id="Vector_17" d="M100.044 28.1137V27.2192C99.8226 27.8222 99.2196 28.2242 98.3687 28.2242C97.3167 28.2242 96.7305 27.6379 96.7305 26.787C96.7305 25.5776 98.0471 25.1656 99.9331 25.447V25.112C99.9331 24.442 99.4574 24.1338 98.8276 24.1338C98.569 24.1298 98.3131 24.1866 98.0804 24.2995C97.8477 24.4123 97.6446 24.5782 97.4876 24.7837L97.0219 24.308C97.2492 24.0327 97.5364 23.8129 97.8615 23.6655C98.1866 23.518 98.5411 23.4467 98.898 23.457C100.024 23.457 100.774 24.1706 100.774 25.2326V28.1405L100.044 28.1137ZM97.5713 26.7234C97.5713 27.256 97.9064 27.5743 98.5764 27.5743C98.7579 27.5926 98.9413 27.5708 99.1135 27.5103C99.2856 27.4497 99.4423 27.3521 99.5725 27.2241C99.7026 27.0962 99.803 26.9412 99.8665 26.7701C99.93 26.5991 99.955 26.4161 99.9399 26.2343V25.9294C98.5161 25.6982 97.5713 25.9629 97.5713 26.7234Z" fill="white"/>
<path id="Vector_18" d="M106.037 25.1251V28.1066H105.193V25.3964C105.193 25.0774 105.066 24.7715 104.841 24.546C104.615 24.3204 104.309 24.1937 103.99 24.1937C103.671 24.1937 103.365 24.3204 103.14 24.546C102.914 24.7715 102.787 25.0774 102.787 25.3964V28.1133H101.937V23.5405H102.767V24.3545C102.948 24.0172 103.236 23.7492 103.585 23.5919C103.934 23.4347 104.325 23.397 104.698 23.4848C105.071 23.5727 105.404 23.781 105.646 24.0776C105.888 24.3742 106.026 24.7424 106.037 25.1251Z" fill="white"/>
<path id="Vector_19" d="M111.819 28.1076H111.052V27.1026C110.895 27.4485 110.639 27.74 110.317 27.9404C109.994 28.1408 109.619 28.2409 109.24 28.2282C107.866 28.2282 107.072 27.2701 107.072 25.8128C107.072 24.4226 107.903 23.4443 109.25 23.4443C109.618 23.4344 109.98 23.5343 110.291 23.7312C110.602 23.9281 110.847 24.2131 110.995 24.5499V21.709H111.819V28.1076ZM110.995 25.7961C111.011 25.5838 110.982 25.3706 110.91 25.1701C110.839 24.9696 110.726 24.7862 110.58 24.6315C110.434 24.4768 110.257 24.3542 110.061 24.2715C109.865 24.1888 109.654 24.1478 109.441 24.1512C108.543 24.1512 107.923 24.8212 107.923 25.7961C107.923 26.771 108.543 27.4711 109.458 27.4711C110.372 27.4711 110.995 26.781 110.995 25.7961Z" fill="white"/>
<path id="Vector_20" d="M115.578 27.2829V24.2913H114.646V23.5308H115.578V22.1104H116.419V23.5375H117.829V24.298H116.419V27.2259C116.419 27.2429 116.422 27.2598 116.429 27.2754C116.435 27.2911 116.445 27.3053 116.457 27.3172C116.469 27.329 116.484 27.3383 116.5 27.3445C116.515 27.3507 116.532 27.3537 116.549 27.3532H117.839V28.1204H116.392C116.173 28.116 115.965 28.0256 115.813 27.8688C115.66 27.712 115.576 27.5015 115.578 27.2829Z" fill="white"/>
<path id="Vector_21" d="M121.685 23.5039L121.655 24.2979C121.474 24.2979 121.29 24.2711 121.099 24.2711C120.916 24.2607 120.734 24.2898 120.563 24.3563C120.393 24.4228 120.239 24.5251 120.112 24.6564C119.985 24.7877 119.888 24.9448 119.827 25.117C119.766 25.2893 119.742 25.4726 119.759 25.6546V28.1136H118.928V23.5407H119.752V24.3984C119.885 24.1156 120.096 23.8765 120.36 23.7088C120.624 23.541 120.93 23.4513 121.243 23.4503C121.392 23.4444 121.541 23.4625 121.685 23.5039Z" fill="white"/>
<path id="Vector_22" d="M125.444 28.1137V27.2192C125.226 27.8222 124.62 28.2242 123.769 28.2242C122.717 28.2242 122.131 27.6379 122.131 26.787C122.131 25.5776 123.447 25.1656 125.334 25.447V25.112C125.334 24.442 124.858 24.1338 124.228 24.1338C123.97 24.1314 123.714 24.1888 123.482 24.3016C123.249 24.4143 123.046 24.5793 122.888 24.7837L122.422 24.308C122.65 24.0327 122.937 23.8129 123.262 23.6655C123.587 23.518 123.942 23.4467 124.298 23.457C125.424 23.457 126.174 24.1706 126.174 25.2326V28.1405L125.444 28.1137ZM122.975 26.7234C122.975 27.256 123.31 27.5743 123.98 27.5743C124.162 27.5926 124.345 27.5708 124.517 27.5103C124.689 27.4497 124.846 27.3521 124.976 27.2241C125.106 27.0962 125.207 26.9412 125.27 26.7701C125.334 26.5991 125.359 26.4161 125.344 26.2343V25.9294C123.916 25.6982 122.975 25.9629 122.975 26.7234Z" fill="white"/>
<path id="Vector_23" d="M129.334 28.1139H128.409L126.533 23.541H127.441L128.868 27.0888L130.275 23.541H131.183L129.334 28.1139Z" fill="white"/>
<path id="Vector_24" d="M134.037 27.5215C134.335 27.5346 134.631 27.476 134.902 27.3507C135.172 27.2254 135.409 27.0369 135.591 26.8013L136.077 27.2971C135.831 27.609 135.515 27.8573 135.153 28.0211C134.792 28.185 134.396 28.2595 134 28.2384C133.365 28.242 132.755 27.9932 132.303 27.5468C131.852 27.1005 131.596 26.493 131.593 25.8582C131.589 25.2234 131.838 24.6131 132.284 24.1617C132.731 23.7103 133.338 23.4547 133.973 23.4512C135.437 23.4512 136.318 24.4026 136.204 26.0207H132.452C132.451 26.2252 132.492 26.4277 132.573 26.6157C132.653 26.8036 132.771 26.9732 132.92 27.1138C133.068 27.2544 133.244 27.3631 133.436 27.4333C133.628 27.5034 133.833 27.5334 134.037 27.5215ZM132.445 25.4612H135.373C135.381 25.2759 135.349 25.0911 135.281 24.9185C135.213 24.7459 135.11 24.5893 134.978 24.4586C134.847 24.3279 134.69 24.226 134.516 24.1593C134.343 24.0925 134.158 24.0625 133.973 24.0709C133.587 24.0571 133.211 24.1949 132.926 24.4547C132.64 24.7146 132.468 25.0758 132.445 25.4612Z" fill="white"/>
<path id="Vector_25" d="M137.312 21.709H138.163V28.1143H137.312V21.709Z" fill="white"/>
<path id="Vector_26" d="M50.1709 32H0V0H7.73199L8.35176 1.42379C8.49581 1.75879 8.63987 2.0938 8.79397 2.40201C12.3244 9.98084 17.9898 16.3646 25.0955 20.7705C32.5245 16.1761 38.3778 9.42767 41.876 1.42379L42.4791 0H50.1843L50.1709 32ZM23.1558 27.2563H45.4271V5.02513C40.728 14.7387 32.8778 22.5747 23.1558 27.2563ZM4.73032 4.93802V27.1926C10.1337 26.8992 15.4334 25.5899 20.3518 23.3333C13.6579 18.6413 8.28304 12.3067 4.74372 4.93802H4.73032Z" fill="white"/>
</g>
</g>
</svg>
