<svg width="24" height="24" viewBox="0 0 24 24" fill="none" xmlns="http://www.w3.org/2000/svg">
<g id="Iconsax/Bold/instagram">
<path id="Subtract" fill-rule="evenodd" clip-rule="evenodd" d="M16.19 2H7.81C4.17 2 2 4.17 2 7.81V16.18C2 19.83 4.17 22 7.81 22H16.18C19.82 22 21.99 19.83 21.99 16.19V7.81C22 4.17 19.83 2 16.19 2ZM8.14911 8.06953C8.38537 7.84234 8.5182 7.53412 8.51836 7.21266C8.51853 6.8912 8.38603 6.58285 8.15 6.35543C7.91398 6.12801 7.59377 6.00016 7.25981 6C6.92586 5.99984 6.60551 6.12738 6.36925 6.35457C6.13299 6.58176 6.00017 6.88999 6 7.21145C5.99983 7.5329 6.13234 7.84126 6.36836 8.06868C6.60438 8.29609 6.9246 8.42395 7.25855 8.42411C7.59251 8.42427 7.91285 8.29672 8.14911 8.06953ZM6.03778 9.32163H8.55614V16.9091H6.03778V9.32163ZM10.0294 9.32163H12.5352L12.51 10.3398C13.5551 8.5035 18 8.36411 18 12.1033V16.9091H15.5131V12.9275C15.5131 10.5034 12.51 10.7094 12.51 12.9275V16.9091H10.0294V9.32163Z" fill="white"/>
</g>
</svg>
