<svg width="32" height="32" viewBox="0 0 32 32" fill="none" xmlns="http://www.w3.org/2000/svg">
<g id="maki:rocket">
<path id="Vector" d="M24.6504 4.2666C20.0744 4.2666 13.9389 7.40473 9.81731 12.7999H6.39971C3.93144 12.7999 2.51704 14.6431 1.54211 16.5909L0.234375 19.1999H6.39971L9.59971 22.3999L12.7997 25.5999V31.7631L15.4088 30.4575C17.3565 29.4847 19.1997 28.0682 19.1997 25.5999V22.1823C24.5949 18.0607 27.733 11.9231 27.733 7.34927V4.2666H24.6504ZM19.1997 10.6666C19.7655 10.6666 20.3081 10.8914 20.7082 11.2914C21.1083 11.6915 21.333 12.2341 21.333 12.7999C21.333 13.3657 21.1083 13.9084 20.7082 14.3084C20.3081 14.7085 19.7655 14.9333 19.1997 14.9333C18.6339 14.9333 18.0913 14.7085 17.6912 14.3084C17.2911 13.9084 17.0664 13.3657 17.0664 12.7999C17.0664 12.2341 17.2911 11.6915 17.6912 11.2914C18.0913 10.8914 18.6339 10.6666 19.1997 10.6666ZM5.33304 23.4666L4.26637 24.5333C2.72611 26.0735 2.13304 29.8666 2.13304 29.8666C2.13304 29.8666 5.75544 29.4442 7.46637 27.7333L8.53304 26.6666L5.33304 23.4666Z" fill="#101F46"/>
</g>
</svg>
