<svg width="50" height="50" viewBox="0 0 50 50" fill="none" xmlns="http://www.w3.org/2000/svg">
<g id="secure-shield-password-protect-safe-svgrepo-com">
<path id="Vector" d="M25.0006 49.2004C24.1906 49.2073 23.3945 48.9898 22.7006 48.5719L14.0291 43.5004C10.7829 41.6849 8.07337 39.0446 6.1745 35.8464C4.27564 32.6482 3.25469 29.0054 3.21484 25.2861V11.429C3.21523 10.4952 3.50157 9.58392 4.03535 8.81773C4.56913 8.05154 5.32474 7.46719 6.20056 7.14328L23.4291 0.81471C24.4438 0.443274 25.5573 0.443274 26.572 0.81471L43.8006 7.14328C44.6764 7.46719 45.432 8.05154 45.9658 8.81773C46.4995 9.58392 46.7859 10.4952 46.7863 11.429V25.2861C46.7464 29.0054 45.7255 32.6482 43.8266 35.8464C41.9277 39.0446 39.2183 41.6849 35.972 43.5004L27.3006 48.5719C26.6067 48.9898 25.8106 49.2073 25.0006 49.2004ZM25.0006 4.11471C24.8872 4.09407 24.7711 4.09407 24.6577 4.11471L7.42913 10.4719C7.23507 10.5437 7.06854 10.6748 6.95316 10.8466C6.83778 11.0184 6.77939 11.2222 6.78627 11.429V25.2861C6.8277 28.3808 7.68578 31.4097 9.27369 34.0662C10.8616 36.7228 13.123 38.9128 15.8291 40.4147L24.5006 45.5004C24.6539 45.5842 24.8258 45.6281 25.0006 45.6281C25.1753 45.6281 25.3472 45.5842 25.5006 45.5004L34.172 40.4147C36.8781 38.9128 39.1395 36.7228 40.7274 34.0662C42.3153 31.4097 43.1734 28.3808 43.2148 25.2861V11.429C43.2157 11.227 43.1546 11.0296 43.0396 10.8635C42.9246 10.6974 42.7614 10.5707 42.572 10.5004L25.3434 4.17185C25.2336 4.13204 25.1174 4.11267 25.0006 4.11471Z" fill="white"/>
<path id="Vector_2" d="M23.4282 31.9281C23.0066 31.9254 22.5985 31.7793 22.271 31.5138L16.171 26.371C15.8073 26.066 15.5796 25.629 15.5381 25.1561C15.4966 24.6833 15.6446 24.2133 15.9496 23.8495C16.2546 23.4858 16.6916 23.2582 17.1645 23.2166C17.6373 23.1751 18.1073 23.3231 18.471 23.6281L23.2568 27.6567L31.4282 18.6567C31.7464 18.3043 32.1916 18.0928 32.6658 18.0687C33.14 18.0446 33.6044 18.2099 33.9568 18.5281C34.3091 18.8464 34.5206 19.2916 34.5447 19.7658C34.5688 20.24 34.4036 20.7043 34.0853 21.0567L24.8282 31.3424C24.6509 31.5353 24.434 31.6876 24.1924 31.7887C23.9507 31.8898 23.69 31.9374 23.4282 31.9281Z" fill="white"/>
</g>
</svg>
